<svg xmlns="http://www.w3.org/2000/svg" viewBox="0 0 32 32" shape-rendering="crispEdges">
  <rect width="32" height="32" fill="#1a1c2c"/>
  <rect x="14" y="2" width="2" height="3" fill="#fee761"/>
  <rect x="16" y="3" width="2" height="3" fill="#fee761"/>
  <rect x="13" y="5" width="1" height="3" fill="#e43b44"/>
  <rect x="18" y="5" width="1" height="3" fill="#e43b44"/>
  <rect x="14" y="5" width="4" height="3" fill="#feae34"/>
  <rect x="15" y="8" width="2" height="4" fill="#fff1e8"/>
  <rect x="14" y="11" width="4" height="1" fill="#262b44"/>
  <rect x="6" y="12" width="20" height="6" fill="#ff77a8"/>
  <rect x="6" y="12" width="20" height="1" fill="#ffaad5"/>
  <rect x="6" y="17" width="20" height="1" fill="#ad2f7e"/>
  <rect x="8" y="14" width="2" height="1" fill="#feeed8"/>
  <rect x="14" y="14" width="2" height="1" fill="#feeed8"/>
  <rect x="20" y="14" width="2" height="1" fill="#feeed8"/>
  <rect x="4" y="18" width="24" height="9" fill="#feeed8"/>
  <rect x="4" y="18" width="24" height="1" fill="#fff1e8"/>
  <rect x="4" y="26" width="24" height="1" fill="#b86f50"/>
  <rect x="2" y="27" width="28" height="2" fill="#3978a8"/>
  <rect x="2" y="29" width="28" height="1" fill="#262b44"/>
  <rect x="6" y="11" width="20" height="1" fill="#262b44"/>
  <rect x="5" y="12" width="1" height="6" fill="#262b44"/>
  <rect x="26" y="12" width="1" height="6" fill="#262b44"/>
  <rect x="3" y="18" width="1" height="9" fill="#262b44"/>
  <rect x="28" y="18" width="1" height="9" fill="#262b44"/>
</svg>
